<svg width="60" height="60" viewBox="0 0 60 60" fill="none" xmlns="http://www.w3.org/2000/svg">
<circle cx="30" cy="30" r="30" fill="#0D1C1C"/>
<path d="M44 46C44 46 39.286 44.145 35.473 42.66H19.437C17.54 42.66 16 41.026 16 39.013V17.644C16 15.633 17.54 14 19.437 14H40.562C42.46 14 43.999 15.632 43.999 17.645V36.049H44V46ZM39.861 34.018C39.7861 33.9219 39.6921 33.8423 39.5848 33.7844C39.4776 33.7266 39.3595 33.6916 39.2381 33.6817C39.1166 33.6718 38.9944 33.6873 38.8792 33.7271C38.7641 33.7669 38.6584 33.8302 38.569 33.913C38.539 33.939 35.554 36.594 29.999 36.594C24.513 36.594 21.482 33.958 21.428 33.91C21.3385 33.8277 21.2329 33.7648 21.1178 33.7253C21.0027 33.6859 20.8808 33.6707 20.7595 33.6807C20.6383 33.6908 20.5205 33.7258 20.4135 33.7837C20.3066 33.8416 20.2127 33.921 20.138 34.017C19.9779 34.2167 19.8997 34.4698 19.919 34.725C19.9359 34.9789 20.0498 35.2167 20.237 35.389C20.379 35.517 23.774 38.539 29.999 38.539C36.225 38.539 39.62 35.517 39.762 35.389C39.9489 35.2165 40.0624 34.9788 40.079 34.725C40.0984 34.4702 40.0205 34.2176 39.861 34.018Z" fill="white"/>
</svg>
