<svg width="157" height="36" viewBox="0 0 157 36" fill="none" xmlns="http://www.w3.org/2000/svg">
<rect x="2" y="2" width="32" height="32" rx="16" fill="#DDFFFF"/>
<path d="M29 13.7622L18.0476 18.0479L26.1429 20.9051L29 13.7622Z" fill="white" stroke="#0D1C1C" stroke-width="0.8" stroke-linecap="round" stroke-linejoin="round"/>
<path d="M13.7617 29L18.0474 18.0476L20.9046 26.1429L13.7617 29Z" fill="white" stroke="#0D1C1C" stroke-width="0.8" stroke-linecap="round" stroke-linejoin="round"/>
<path d="M9 9L29 13.7619L18.0476 18.0476L13.7619 29L9 9Z" fill="white" stroke="#0D1C1C" stroke-width="0.8" stroke-linecap="round" stroke-linejoin="round"/>
<path d="M10.6667 16.1429L18.0476 18.0476L29 13.7619L9 9L10.6667 16.1429Z" fill="white" stroke="#0D1C1C" stroke-width="0.8" stroke-linecap="round" stroke-linejoin="round"/>
<path d="M26 31.8564C29.0503 30.0953 31.4342 27.377 32.7821 24.1229C34.1299 20.8689 34.3664 17.261 33.4548 13.8589C32.5432 10.4568 30.5345 7.45049 27.7402 5.30635C24.9459 3.1622 21.5221 2 18 2C14.4779 2 11.0541 3.1622 8.25982 5.30635C5.46551 7.45049 3.45679 10.4568 2.54519 13.8589C1.63359 17.261 1.87006 20.8689 3.21793 24.1229C4.5658 27.377 6.94973 30.0953 10 31.8564" stroke="#0D1C1C" stroke-width="0.8" stroke-linecap="round" stroke-linejoin="round"/>
<circle cx="18.0478" cy="18.0478" r="3.80952" stroke="#0D1C1C" stroke-width="0.8" stroke-linecap="round" stroke-linejoin="round"/>
<path d="M41 14.254V13.1194H47.8005V14.254H45.0588V21.855H43.7374V14.254H41Z" fill="#0D1C1C"/>
<path d="M49.7865 21.855V13.1194H51.1123V16.9156H55.493V13.1194H56.823V21.855H55.493V18.046H51.1123V21.855H49.7865Z" fill="#0D1C1C"/>
<path d="M59.2371 21.855V13.1194H64.7461V14.254H60.5628V16.9156H64.4586V18.046H60.5628V20.7204H64.7976V21.855H59.2371Z" fill="#0D1C1C"/>
<path d="M70.6811 21.855V13.1194H76.1301V14.254H72.0069V16.9156H75.7397V18.046H72.0069V21.855H70.6811Z" fill="#0D1C1C"/>
<path d="M79.5696 13.1194V21.855H78.2438V13.1194H79.5696Z" fill="#0D1C1C"/>
<path d="M81.9836 21.855V13.1194H85.1157C85.7965 13.1194 86.3614 13.236 86.8105 13.4692C87.2595 13.7024 87.5956 14.0251 87.8187 14.4374C88.0447 14.8469 88.1577 15.3204 88.1577 15.8578C88.1577 16.4436 88.0232 16.9512 87.7544 17.3806C87.4884 17.8071 87.085 18.1199 86.5444 18.319L88.4923 21.855H86.9821L85.1972 18.5493C85.1686 18.5493 85.14 18.5493 85.1114 18.5493H83.3094V21.855H81.9836ZM83.3094 17.4147H84.9913C85.6377 17.4147 86.1039 17.2782 86.39 17.0052C86.6789 16.7322 86.8233 16.3498 86.8233 15.8578C86.8233 15.363 86.6789 14.972 86.39 14.6848C86.1011 14.3948 85.6291 14.2498 84.9741 14.2498H83.3094V17.4147Z" fill="#0D1C1C"/>
<path d="M95.0467 15.4142C95.001 15.0104 94.8122 14.6976 94.4804 14.4758C94.1486 14.2512 93.731 14.1389 93.2276 14.1389C92.6869 14.1389 92.2579 14.2611 91.9404 14.5057C91.6229 14.7502 91.4641 15.0588 91.4641 15.4313C91.4641 15.71 91.5485 15.9374 91.7173 16.1137C91.8889 16.2872 92.0977 16.4237 92.3437 16.5232C92.5926 16.6227 92.8314 16.7024 93.0602 16.7621L93.9183 16.9839C94.1986 17.0521 94.4861 17.146 94.7807 17.2654C95.0753 17.382 95.3485 17.5355 95.6002 17.7261C95.8519 17.9137 96.055 18.1483 96.2095 18.4299C96.3668 18.7114 96.4455 19.0483 96.4455 19.4408C96.4455 19.9327 96.3167 20.372 96.0593 20.7588C95.8047 21.1455 95.4357 21.4498 94.9524 21.6716C94.4689 21.8905 93.8826 22 93.1932 22C92.2093 22 91.4255 21.7711 90.842 21.3133C90.2614 20.8555 89.9496 20.2313 89.9067 19.4408H91.2367C91.2768 19.9156 91.4842 20.2682 91.8589 20.4986C92.2336 20.7289 92.6755 20.8441 93.1847 20.8441C93.7481 20.8441 94.2129 20.7147 94.5791 20.4559C94.9481 20.1972 95.1326 19.8545 95.1326 19.428C95.1326 19.1692 95.0582 18.9573 94.9094 18.7924C94.7636 18.6246 94.5648 18.4882 94.3131 18.3829C94.0642 18.2749 93.7825 18.1796 93.4678 18.0972L92.4295 17.8156C91.723 17.6251 91.1652 17.345 90.7562 16.9754C90.3472 16.6057 90.1427 16.1166 90.1427 15.5081C90.1427 15.0047 90.28 14.5654 90.5546 14.19C90.8291 13.8147 91.201 13.5232 91.6701 13.3156C92.142 13.1052 92.6712 13 93.2576 13C93.8525 13 94.3774 13.1038 94.8322 13.3114C95.2899 13.519 95.6503 13.8047 95.9134 14.1687C96.1766 14.5327 96.3139 14.9479 96.3253 15.4142H95.0467Z" fill="#0D1C1C"/>
<path d="M98.0797 14.254V13.1194H104.88V14.254H102.139V21.855H100.817V14.254H98.0797Z" fill="#0D1C1C"/>
<path d="M117.845 15.9602H116.507C116.398 15.3943 116.13 14.9607 115.704 14.6592C115.281 14.355 114.789 14.2028 114.228 14.2028C113.725 14.2028 113.273 14.3294 112.873 14.5825C112.472 14.8355 112.156 15.2066 111.924 15.6957C111.695 16.182 111.581 16.7791 111.581 17.4872C111.581 18.1981 111.697 18.7981 111.929 19.2872C112.16 19.7763 112.475 20.146 112.873 20.3962C113.273 20.6464 113.723 20.7716 114.224 20.7716C114.779 20.7716 115.269 20.6223 115.696 20.3237C116.122 20.0251 116.392 19.5972 116.507 19.0398L117.845 19.0441C117.751 19.6185 117.539 20.1261 117.21 20.5668C116.881 21.0076 116.461 21.3531 115.949 21.6033C115.437 21.8507 114.859 21.9744 114.215 21.9744C113.455 21.9744 112.777 21.7953 112.182 21.437C111.587 21.0758 111.118 20.5597 110.774 19.8886C110.434 19.2175 110.264 18.4171 110.264 17.4872C110.264 16.5545 110.435 15.754 110.779 15.0858C111.122 14.4147 111.591 13.9 112.186 13.5417C112.781 13.1806 113.457 13 114.215 13C114.836 13 115.401 13.1166 115.91 13.3498C116.422 13.5829 116.847 13.9213 117.185 14.3649C117.525 14.8057 117.745 15.3374 117.845 15.9602Z" fill="#0D1C1C"/>
<path d="M119.915 21.855V13.1194H121.241V20.7204H125.222V21.855H119.915Z" fill="#0D1C1C"/>
<path d="M128.544 13.1194V21.855H127.218V13.1194H128.544Z" fill="#0D1C1C"/>
<path d="M138.256 15.9602H136.917C136.809 15.3943 136.541 14.9607 136.115 14.6592C135.692 14.355 135.2 14.2028 134.639 14.2028C134.136 14.2028 133.684 14.3294 133.283 14.5825C132.883 14.8355 132.567 15.2066 132.335 15.6957C132.106 16.182 131.992 16.7791 131.992 17.4872C131.992 18.1981 132.108 18.7981 132.339 19.2872C132.571 19.7763 132.886 20.146 133.283 20.3962C133.684 20.6464 134.134 20.7716 134.635 20.7716C135.19 20.7716 135.68 20.6223 136.106 20.3237C136.533 20.0251 136.803 19.5972 136.917 19.0398L138.256 19.0441C138.162 19.6185 137.95 20.1261 137.621 20.5668C137.292 21.0076 136.872 21.3531 136.36 21.6033C135.848 21.8507 135.27 21.9744 134.626 21.9744C133.865 21.9744 133.188 21.7953 132.593 21.437C131.998 21.0758 131.528 20.5597 131.185 19.8886C130.845 19.2175 130.675 18.4171 130.675 17.4872C130.675 16.5545 130.846 15.754 131.19 15.0858C131.533 14.4147 132.002 13.9 132.597 13.5417C133.192 13.1806 133.868 13 134.626 13C135.247 13 135.812 13.1166 136.321 13.3498C136.833 13.5829 137.258 13.9213 137.595 14.3649C137.936 14.8057 138.156 15.3374 138.256 15.9602Z" fill="#0D1C1C"/>
<path d="M140.326 21.855V13.1194H141.652V17.291H141.759L145.444 13.1194H147.113L143.569 17.0521L147.126 21.855H145.53L142.69 17.9521L141.652 19.1379V21.855H140.326Z" fill="#0D1C1C"/>
<path d="M153.601 15.4142C153.556 15.0104 153.367 14.6976 153.035 14.4758C152.703 14.2512 152.286 14.1389 151.782 14.1389C151.241 14.1389 150.812 14.2611 150.495 14.5057C150.177 14.7502 150.019 15.0588 150.019 15.4313C150.019 15.71 150.103 15.9374 150.272 16.1137C150.443 16.2872 150.652 16.4237 150.898 16.5232C151.147 16.6227 151.386 16.7024 151.615 16.7621L152.473 16.9839C152.753 17.0521 153.041 17.146 153.335 17.2654C153.63 17.382 153.903 17.5355 154.155 17.7261C154.406 17.9137 154.61 18.1483 154.764 18.4299C154.921 18.7114 155 19.0483 155 19.4408C155 19.9327 154.871 20.372 154.614 20.7588C154.359 21.1455 153.99 21.4498 153.507 21.6716C153.023 21.8905 152.437 22 151.748 22C150.764 22 149.98 21.7711 149.397 21.3133C148.816 20.8555 148.504 20.2313 148.461 19.4408H149.791C149.831 19.9156 150.039 20.2682 150.413 20.4986C150.788 20.7289 151.23 20.8441 151.739 20.8441C152.303 20.8441 152.767 20.7147 153.134 20.4559C153.503 20.1972 153.687 19.8545 153.687 19.428C153.687 19.1692 153.613 18.9573 153.464 18.7924C153.318 18.6246 153.119 18.4882 152.868 18.3829C152.619 18.2749 152.337 18.1796 152.022 18.0972L150.984 17.8156C150.278 17.6251 149.72 17.345 149.311 16.9754C148.902 16.6057 148.697 16.1166 148.697 15.5081C148.697 15.0047 148.834 14.5654 149.109 14.19C149.384 13.8147 149.756 13.5232 150.225 13.3156C150.697 13.1052 151.226 13 151.812 13C152.407 13 152.932 13.1038 153.387 13.3114C153.844 13.519 154.205 13.8047 154.468 14.1687C154.731 14.5327 154.868 14.9479 154.88 15.4142H153.601Z" fill="#0D1C1C"/>
</svg>
