<?xml version="1.0" standalone="no"?>
<!DOCTYPE svg PUBLIC "-//W3C//DTD SVG 1.1//EN" "http://www.w3.org/Graphics/SVG/1.1/DTD/svg11.dtd" >
<svg xmlns="http://www.w3.org/2000/svg">
<metadata>
<json>
<![CDATA[
{
	"fontFamily": "tfc-ico",
	"majorVersion": 1,
	"minorVersion": 0,
	"version": "Version 1.0",
	"fontId": "tfc-ico",
	"psName": "tfc-ico",
	"subFamily": "Regular",
	"fullName": "tfc-ico",
	"description": "Font generated by IcoMoon."
}
]]>
</json>
</metadata>
<defs>
<font id="tfc-ico" horiz-adv-x="1024">
<font-face units-per-em="1024" ascent="960" descent="-64" />
<missing-glyph horiz-adv-x="1024" />
<glyph unicode="&#x20;" horiz-adv-x="512" d="" />
<glyph unicode="&#xe900;" glyph-name="account-ico" data-tags="account-ico" d="M786.398 215.122c-21.975 46.51-50.825 86.733-84.61 118.603-56.47 53.27-123.286 80.142-189.787 80.142s-133.319-26.872-189.789-80.142c-33.784-31.869-62.633-72.093-84.61-118.603-4.87-10.308-4.497-20.896 1.308-31.894 6.265-11.872 18.81-23.327 35.877-28.945l215.856-71.107c13.872-4.567 28.845-4.567 42.717 0l215.854 71.107c17.067 5.618 29.614 17.073 35.881 28.945 5.803 10.998 6.178 21.586 1.304 31.894zM848.125 244.285c29.873-63.235-11.127-132.963-77.551-154.842l-215.856-71.107c-27.744-9.141-57.689-9.141-85.434 0l-215.856 71.107c-66.428 21.879-107.428 91.607-77.55 154.842 25.304 53.557 59.003 100.906 99.49 139.098 67.886 64.039 151.064 98.75 236.633 98.75s168.746-34.711 236.632-98.75c40.489-38.192 74.185-85.542 99.492-139.098zM512 482.133c-94.256 0-170.667 76.41-170.667 170.667s76.41 170.667 170.667 170.667c94.256 0 170.667-76.41 170.667-170.667s-76.41-170.667-170.667-170.667zM512 413.867c131.959 0 238.933 106.974 238.933 238.933s-106.974 238.933-238.933 238.933c-131.959 0-238.933-106.974-238.933-238.933s106.974-238.933 238.933-238.933z" />
<glyph unicode="&#xe901;" glyph-name="arrow-DOWN-ico" data-tags="arrow-DOWN-ico" d="M737.929 391.178c7.168-7.127 7.168-18.73 0-25.856l-129.685-128.88c-45.394-45.111-68.091-67.666-96.243-67.666s-50.848 22.555-96.242 67.666l-129.682 128.88c-7.171 7.126-7.171 18.729 0 25.856 6.29 6.25 16.167 7.067 23.398 1.934l114.177-81.048c17.914-12.716 26.87-19.074 34.142-15.549s7.826 14.495 8.937 36.435l20.17 398.389c0.677 13.369 11.715 23.863 25.102 23.863s24.424-10.493 25.101-23.863l20.17-398.388c1.111-21.94 1.666-32.91 8.937-36.435s16.228 2.833 34.142 15.549l114.176 81.048c7.229 5.133 17.108 4.317 23.402-1.934z" />
<glyph unicode="&#xe902;" glyph-name="arrow-LEFT-ico" data-tags="arrow-LEFT-ico" d="M455.177 673.922c-7.127 7.171-18.729 7.171-25.856 0l-128.877-129.682c-45.111-45.394-67.667-68.091-67.667-96.243s22.556-50.848 67.667-96.242l128.877-129.683c7.127-7.168 18.729-7.168 25.856 0 6.251 6.294 7.068 16.166 1.934 23.402l-81.048 114.174c-12.716 17.914-19.074 26.87-15.549 34.142s14.495 7.826 36.435 8.937l398.385 20.17c13.373 0.677 23.866 11.715 23.866 25.101s-10.493 24.425-23.866 25.102l-398.385 20.17c-21.94 1.111-32.91 1.666-36.435 8.937s2.833 16.228 15.549 34.141l81.048 114.178c5.134 7.231 4.317 17.108-1.934 23.398z" />
<glyph unicode="&#xe903;" glyph-name="arrow-RIGHT-ico" data-tags="arrow-RIGHT-ico" d="M568.822 673.922c7.127 7.171 18.73 7.171 25.856 0l128.88-129.682c45.111-45.394 67.666-68.091 67.666-96.243s-22.555-50.848-67.666-96.242l-128.88-129.683c-7.126-7.168-18.729-7.168-25.856 0-6.25 6.294-7.067 16.166-1.934 23.402l81.048 114.174c12.716 17.914 19.074 26.87 15.549 34.142s-14.495 7.826-36.435 8.937l-398.389 20.17c-13.369 0.677-23.863 11.715-23.863 25.101s10.493 24.425 23.863 25.102l398.388 20.17c21.94 1.111 32.91 1.666 36.435 8.937s-2.833 16.228-15.549 34.141l-81.048 114.178c-5.133 7.231-4.317 17.108 1.934 23.398z" />
<glyph unicode="&#xe904;" glyph-name="arrow-UP-ico" data-tags="arrow-UP-ico" d="M286.076 504.825c-7.171 7.127-7.171 18.729 0 25.856l129.682 128.877c45.393 45.111 68.090 67.667 96.242 67.667s50.849-22.556 96.242-67.667l129.679-128.877c7.175-7.126 7.175-18.729 0-25.856-6.287-6.251-16.166-7.068-23.395-1.934l-114.177 81.048c-17.914 12.716-26.87 19.074-34.141 15.549s-7.826-14.495-8.937-36.435l-20.17-398.387c-0.677-13.373-11.715-23.866-25.102-23.866s-24.424 10.493-25.102 23.866l-20.17 398.387c-1.111 21.94-1.666 32.91-8.937 36.435s-16.228-2.833-34.141-15.549l-114.177-81.048c-7.231-5.134-17.108-4.317-23.398 1.934z" />
<glyph unicode="&#xe905;" glyph-name="arrowhead-down-ico" data-tags="arrowhead-down-ico" d="M875.568 675.013c6.717-6.675 7.168-17.394 1.044-24.613l-260.53-306.867c-48.326-56.921-72.488-85.383-104.082-85.383s-55.756 28.462-104.082 85.383l-260.527 306.867c-6.129 7.219-5.676 17.938 1.042 24.613v0c6.756 6.715 17.555 7.061 24.728 0.793l320.872-280.373c8.561-7.481 12.842-11.222 17.967-11.222s9.406 3.741 17.967 11.222l320.874 280.373c7.168 6.268 17.968 5.921 24.726-0.793v0z" />
<glyph unicode="&#xe906;" glyph-name="arrowhead-up-ico" data-tags="arrowhead-up-ico" d="M875.568 232.864c6.717 6.67 7.168 17.394 1.044 24.61l-260.53 306.867c-48.326 56.921-72.488 85.382-104.082 85.382s-55.756-28.461-104.082-85.382l-260.527-306.867c-6.129-7.216-5.676-17.94 1.042-24.61v0c6.756-6.717 17.555-7.066 24.728-0.799l320.872 280.376c8.561 7.481 12.842 11.222 17.967 11.222s9.406-3.741 17.967-11.222l320.874-280.376c7.168-6.267 17.968-5.919 24.726 0.799v0z" />
<glyph unicode="&#xe907;" glyph-name="checkmark-circle-ico" data-tags="checkmark-circle-ico" d="M512 72.533c-207.365 0-375.467 168.1-375.467 375.467 0 207.365 168.102 375.467 375.467 375.467 207.367 0 375.467-168.102 375.467-375.467 0-207.367-168.1-375.467-375.467-375.467zM512 4.267c245.071 0 443.733 198.663 443.733 443.733 0 245.067-198.663 443.733-443.733 443.733-245.067 0-443.733-198.666-443.733-443.733 0-245.071 198.666-443.733 443.733-443.733zM731.518 679.706c10.417-5.027 14.247-17.924 8.267-27.822l-267.607-442.817-160.005 211.816c-16.074 21.278-0.895 51.767 25.773 51.767 9.377 0 18.291-4.076 24.427-11.167l107.553-124.325 237.023 336.183c5.53 7.844 15.927 10.537 24.569 6.365z" />
<glyph unicode="&#xe908;" glyph-name="checkmark-icon" data-tags="checkmark-icon" d="M856.958 812.106c16.364-7.898 22.385-28.166 12.984-43.719l-420.521-695.854-251.436 332.851c-25.259 33.438-1.407 81.349 40.499 81.349 14.736 0 28.744-6.404 38.386-17.549l169.013-195.367 372.47 528.287c8.69 12.326 25.020 16.557 38.605 10.002z" />
<glyph unicode="&#xe909;" glyph-name="copy-ico" data-tags="copy-ico" d="M341.333 277.333v-136.533c0-64.362 0-96.543 19.995-116.538s52.176-19.995 116.539-19.995h341.333c64.362 0 96.543 0 116.538 19.995s19.995 52.176 19.995 116.538v341.333c0 64.362 0 96.543-19.995 116.539s-52.176 19.995-116.538 19.995h-136.533v136.533c0 64.362 0 96.543-19.995 116.539s-52.176 19.995-116.539 19.995h-341.333c-64.362 0-96.543 0-116.539-19.995s-19.995-52.176-19.995-116.539v-341.333c0-64.362 0-96.543 19.995-116.539s52.176-19.995 116.539-19.995h136.533zM204.8 823.467h341.333c34.111 0 52.827-0.145 65.81-1.89l0.498-0.068 0.068-0.498c1.746-12.984 1.89-31.7 1.89-65.81v-136.533h-136.533c-64.362 0-96.543 0-116.539-19.995s-19.995-52.176-19.995-116.539v-136.533h-136.533c-34.111 0-52.827 0.145-65.81 1.89l-0.498 0.068-0.068 0.498c-1.746 12.984-1.89 31.7-1.89 65.81v341.333c0 34.111 0.145 52.827 1.89 65.81l0.068 0.498 0.498 0.068c12.984 1.746 31.7 1.89 65.81 1.89zM129.145 889.132c-18.193-2.533-31.020-7.53-40.884-17.393-9.859-9.859-14.857-22.682-17.39-40.864-0.027-0.194-0.054-0.389-0.081-0.585l-0.025-0.183c-1.308-9.731-1.932-20.98-2.229-34.109-0.27-11.952-0.27-25.461-0.27-40.798v-341.531c0-1.995 0-3.959 0.001-5.894 0.004-12.818 0.035-24.338 0.27-34.707 0.297-13.109 0.921-24.378 2.229-34.109l0.014-0.104c0.029-0.221 0.060-0.441 0.090-0.66 2.533-18.184 7.531-31.007 17.391-40.868 9.863-9.863 22.692-14.861 40.886-17.393 0.189-0.027 0.379-0.053 0.569-0.079l0.177-0.024c18.59-2.499 42.798-2.499 74.71-2.499h136.73v-136.533c0-64.362 0-96.543 19.995-116.538s52.176-19.995 116.539-19.995h341.333c64.362 0 96.543 0 116.538 19.995s19.995 52.176 19.995 116.538v341.333c0 64.362 0 96.543-19.995 116.539s-52.176 19.995-116.538 19.995h-136.533v136.73c0 31.913 0 56.12-2.499 74.71l-0.014 0.102c-0.029 0.216-0.059 0.432-0.089 0.647-2.533 18.192-7.53 31.020-17.393 40.883s-22.691 14.86-40.884 17.393zM129.793 889.22l0.1 0.014c9.731 1.308 21 1.932 34.109 2.229 10.369 0.235 21.888 0.266 34.707 0.27 1.935 0.001 3.899 0.001 5.894 0.001h341.531c15.337 0 28.846 0 40.798-0.27 13.128-0.297 24.407-0.925 34.138-2.233l0.15-0.020c0.19-0.025 0.38-0.052 0.569-0.078zM138.492 347.559l-0.068 0.498c-1.746 12.984-1.89 31.7-1.89 65.81v341.333c0 34.111 0.145 52.827 1.89 65.81l0.068 0.498zM138.99 821.576c12.984 1.746 31.7 1.89 65.81 1.89h341.333c34.111 0 52.827-0.145 65.81-1.89 0.169-0.023 0.335-0.046 0.498-0.068l0.068-0.498c1.746-12.984 1.89-31.7 1.89-65.81v-136.533h-136.533c-64.362 0-96.543 0-116.539-19.995s-19.995-52.176-19.995-116.539v-136.533h-136.533c-34.111 0-52.827 0.145-65.81 1.89-0.168 0.023-0.337 0.046-0.498 0.068z" />
<glyph unicode="&#xe90a;" glyph-name="desktop-ico" data-tags="desktop-ico" d="M88.261 871.739c19.995 19.995 52.176 19.995 116.539 19.995h614.4c64.362 0 96.543 0 116.538-19.995s19.995-52.176 19.995-116.539v-477.867c0-64.362 0-96.543-19.995-116.538s-52.176-19.995-116.538-19.995h-614.4c-64.362 0-96.543 0-116.539 19.995s-19.995 52.176-19.995 116.538v477.867c0 64.362 0 96.543 19.995 116.539zM156.528 803.472c-19.995-19.995-19.995-52.176-19.995-116.539v-273.067c0-64.362 0-96.543 19.995-116.539s52.176-19.995 116.539-19.995h477.867c64.362 0 96.543 0 116.538 19.995s19.995 52.176 19.995 116.539v273.067c0 64.362 0 96.543-19.995 116.539s-52.176 19.995-116.538 19.995h-477.867c-64.362 0-96.543 0-116.539-19.995zM639.079 4.267h-254.158c-24.073 0-43.588 19.517-43.588 43.588 0 15.312 8.033 29.498 21.162 37.376l19.676 11.803c23.661 14.199 35.49 21.299 47.262 26.481 52.606 23.177 112.529 23.177 165.134 0 11.771-5.181 23.601-12.281 47.261-26.481h0.001l19.676-11.803c13.129-7.878 21.162-22.064 21.162-37.376 0-24.071-19.515-43.588-43.588-43.588z" />
<glyph unicode="&#xe90b;" glyph-name="doc-ico" data-tags="doc-ico" d="M819.2 755.2c0 64.362 0 96.543-19.995 116.539s-52.176 19.995-116.538 19.995h-68.267c-257.45 0-386.174 0-466.154-79.979s-79.979-208.704-79.979-466.154v-204.8c0-64.362 0-96.543 19.995-116.538s52.176-19.995 116.539-19.995h477.867c64.362 0 96.543 0 116.538 19.995s19.995 52.176 19.995 116.538v283.569l136.533 136.533c0 69.605-56.429 126.031-126.034 126.031l-10.499-10.503v78.769zM136.533 140.8v204.8c0 82.649 0.058 149.479 2.441 204.835 46.784 0.154 85.805 0.967 117.789 5.267 40.965 5.508 75.457 17.291 102.851 44.684s39.176 61.886 44.684 102.851c4.3 31.984 5.114 71.005 5.267 117.789 55.356 2.383 122.186 2.441 204.835 2.441h68.267c34.113 0 52.825-0.145 65.809-1.89l0.498-0.068 0.068-0.498c1.748-12.984 1.891-31.7 1.891-65.81v-147.036l-252.216-252.216c-40.651-40.651-68.612-91.619-81.332-146.751-5.134-22.255-7.786-45.193-7.786-68.396 23.207 0 46.14 2.649 68.395 7.782 55.132 12.725 106.102 40.687 146.753 81.333l126.185 126.188v-215.303c0-34.113-0.143-52.825-1.891-65.809l-0.068-0.498-0.498-0.068c-12.984-1.748-31.696-1.891-65.809-1.891h-477.867c-34.111 0-52.827 0.143-65.81 1.891l-0.498 0.068-0.068 0.498c-1.746 12.984-1.89 31.696-1.89 65.809zM341.271 816.176c-0.203-43.958-1.056-77.247-4.632-103.842-4.489-33.395-12.702-51.079-25.298-63.675s-30.28-20.808-63.675-25.298c-26.595-3.575-59.885-4.428-103.842-4.631 0.642 5.958 1.339 11.756 2.099 17.403 8.98 66.79 25.404 102.158 50.596 127.35s60.56 41.616 127.35 50.596c5.646 0.759 11.444 1.457 17.403 2.099zM814.455 575.142l29.484-29.487-267.463-267.466c-23.877-23.875-52.343-42.109-83.325-53.837 11.729 30.979 29.961 59.448 53.837 83.325l267.467 267.465z" />
<glyph unicode="&#xe90c;" glyph-name="download-ico" data-tags="download-ico" d="M737.922 459.444c7.175-7.127 7.175-18.73 0-25.856l-129.68-128.877c-45.394-45.113-68.091-67.669-96.243-67.669s-50.849 22.555-96.242 67.669l-129.682 128.877c-7.171 7.126-7.171 18.729 0 25.856 6.29 6.25 16.167 7.067 23.398 1.934l114.177-81.048c17.914-12.716 26.87-19.074 34.142-15.549s7.826 14.495 8.937 36.435l20.17 398.389c0.677 13.369 11.715 23.863 25.101 23.863s24.425-10.493 25.102-23.863l20.17-398.388c1.111-21.94 1.666-32.91 8.937-36.435s16.228 2.833 34.141 15.549l114.179 81.048c7.229 5.133 17.108 4.317 23.395-1.934zM512 140.8c245.067 0 443.733-15.282 443.733-34.133s-198.666-34.133-443.733-34.133c-245.067 0-443.733 15.282-443.733 34.133s198.666 34.133 443.733 34.133z" />
<glyph unicode="&#xe90d;" glyph-name="edit-ico" data-tags="edit-ico" d="M213.082 353.882l537.851 537.851c113.111 0 204.8-91.692 204.8-204.8l-537.851-537.853c-76.476-76.472-175.423-125.31-281.322-140.076-22.501-3.14-45.315-4.738-68.293-4.738 0 22.979 1.599 45.793 4.737 68.294 14.767 105.895 63.603 204.846 140.078 281.321zM720.937 765.196l55.835 55.829c54.682-10.473 97.778-53.57 108.25-108.256l-55.828-55.83-108.257 108.257zM672.668 716.924l-411.313-411.314c-62.041-62.041-102.978-141.238-118.189-226.448 85.204 15.217 164.405 56.149 226.445 118.19l411.313 411.316-108.255 108.257z" />
<glyph unicode="&#xe90e;" glyph-name="expand-ico" data-tags="expand-ico" d="M391.121 4.267h-209.076c-42.536 0-63.803 0-79.645 9.148-10.378 5.994-18.996 14.609-24.988 24.986-9.146 15.845-9.146 37.11-9.146 79.647v209.077c0 10.206 8.273 18.479 18.479 18.479 9.033 0 16.742-6.531 18.228-15.441l25.549-153.296c1.688-10.131 2.533-15.196 4.762-17.975 3.247-4.048 8.508-5.912 13.577-4.799 3.482 0.765 7.32 4.178 14.995 10.998l261.836 232.745c10.13 9.004 25.523 8.552 35.106-1.032s10.036-24.976 1.032-35.106l-232.743-261.836c-6.823-7.673-10.235-11.517-10.998-14.998-1.112-5.065 0.746-10.329 4.795-13.571 2.781-2.232 7.846-3.079 17.977-4.765l153.297-25.552c8.91-1.481 15.441-9.189 15.441-18.227 0-10.206-8.273-18.48-18.479-18.48zM632.878 891.733h209.075c42.537 0 63.802 0 79.647-9.146 10.377-5.992 18.992-14.61 24.986-24.988 9.148-15.841 9.148-37.109 9.148-79.645v-209.076c0-10.206-8.274-18.479-18.48-18.479-9.032 0-16.746 6.531-18.227 15.441l-25.552 153.297c-1.686 10.131-2.533 15.195-4.758 17.977-3.249 4.049-8.513 5.907-13.578 4.795-3.482-0.764-7.318-4.175-14.998-10.998l-261.834-232.743c-10.129-9.004-25.522-8.552-35.106 1.032s-10.036 24.976-1.032 35.106l232.743 261.836c6.82 7.676 10.233 11.514 10.998 14.995 1.113 5.069-0.744 10.33-4.792 13.577-2.785 2.23-7.851 3.074-17.981 4.762l-153.294 25.549c-8.91 1.485-15.441 9.195-15.441 18.228 0 10.206 8.273 18.479 18.479 18.479z" />
<glyph unicode="&#xe90f;" glyph-name="filters-ico" data-tags="filters-ico" d="M136.533 448c0 245.067 15.282 443.733 34.133 443.733s34.133-198.666 34.133-443.733c0-245.067-15.282-443.733-34.133-443.733s-34.133 198.666-34.133 443.733zM819.2 448c0 245.067 15.282 443.733 34.133 443.733s34.133-198.666 34.133-443.733c0-245.067-15.282-443.733-34.133-443.733s-34.133 198.666-34.133 443.733zM273.067 243.2c0-56.554-45.846-102.4-102.4-102.4s-102.4 45.846-102.4 102.4c0 56.554 45.846 102.4 102.4 102.4s102.4-45.846 102.4-102.4zM955.733 379.733c0-56.554-45.846-102.4-102.4-102.4s-102.4 45.846-102.4 102.4c0 56.554 45.846 102.4 102.4 102.4s102.4-45.846 102.4-102.4zM487.238 753.417c-82.521-11.994-145.905-83.037-145.905-168.884 0-82.596 58.673-151.487 136.614-167.269 1.214-230.726 15.996-412.998 34.053-412.998s32.838 182.272 34.053 412.998c77.941 15.782 136.614 84.673 136.614 167.269 0 85.847-63.384 156.89-145.905 168.884-6.22 85.193-15.013 138.316-24.762 138.316s-18.542-53.124-24.762-138.316zM478.003 487.912c10.638-3.743 22.080-5.779 33.997-5.779s23.359 2.036 33.997 5.779c39.842 14.019 68.403 51.985 68.403 96.621 0 46.492-30.984 85.748-73.43 98.245-9.186 2.704-18.909 4.155-28.97 4.155s-19.784-1.451-28.97-4.155c-42.446-12.496-73.43-51.752-73.43-98.245 0-44.636 28.56-82.603 68.403-96.621z" />
<glyph unicode="&#xe910;" glyph-name="fire-icon" data-tags="fire-icon" d="M546.133 686.933c0-150.811-91.692-273.067-204.8-273.067-112.525 0-203.854 120.999-204.792 270.736-43.247-68.484-68.274-149.62-68.274-236.603 0-245.071 198.666-443.733 443.733-443.733 11.927 0 23.745 0.471 35.434 1.393-6.073 4.301-11.858 9.168-17.28 14.589-61.235 61.235-48.62 163.71 25.64 208.268l34.969 20.978c99.373 59.625 160.171 167.012 160.171 282.896v18.009c118.811-99.011 150.439-268.512 75.332-403.709l-14.234-25.62c88.33 81.108 143.701 197.553 143.701 326.929 0 245.067-198.663 443.733-443.733 443.733-11.477 0-22.853-0.436-34.111-1.292 41.886-49.999 68.244-122.65 68.244-203.508z" />
<glyph unicode="&#xe911;" glyph-name="from-to-ico" data-tags="from-to-ico" d="M705.359 469.122c7.127 7.171 18.726 7.171 25.853 0l128.881-129.682c45.111-45.394 67.666-68.093 67.666-96.24 0-28.153-22.555-50.852-67.666-96.242l-128.881-129.686c-7.127-7.168-18.726-7.168-25.853 0-6.253 6.294-7.072 16.166-1.939 23.402l81.053 114.176c12.711 17.913 19.074 26.87 15.544 34.14-3.523 7.27-14.493 7.823-36.434 8.936l-398.387 20.173c-13.369 0.676-23.863 11.715-23.863 25.102s10.493 24.419 23.863 25.102l398.387 20.167c21.941 1.111 32.911 1.666 36.434 8.937 3.529 7.271-2.833 16.228-15.544 34.141l-81.053 114.178c-5.134 7.231-4.314 17.108 1.939 23.398zM318.644 878.722c-7.127 7.171-18.73 7.171-25.856 0l-128.877-129.682c-45.111-45.394-67.667-68.091-67.667-96.243s22.555-50.848 67.667-96.242l128.877-129.682c7.126-7.171 18.729-7.171 25.856 0 6.25 6.29 7.067 16.167 1.934 23.398l-81.048 114.177c-12.716 17.914-19.074 26.87-15.549 34.142s14.495 7.826 36.435 8.937l398.389 20.17c13.369 0.677 23.863 11.715 23.863 25.101s-10.493 24.425-23.863 25.102l-398.388 20.17c-21.94 1.111-32.91 1.666-36.435 8.937s2.833 16.228 15.549 34.141l81.048 114.178c5.133 7.231 4.317 17.108-1.934 23.398z" />
<glyph unicode="&#xe912;" glyph-name="full-screen-ico" data-tags="full-screen-ico" d="M391.121 4.267h-209.076c-42.536 0-63.803 0-79.645 9.148-10.378 5.987-18.996 14.609-24.988 24.986-9.146 15.845-9.146 37.11-9.146 79.647v209.074c0 10.206 8.273 18.479 18.479 18.479 9.033 0 16.742-6.53 18.228-15.441l25.549-153.3c1.688-10.124 2.533-15.189 4.762-17.975 3.247-4.048 8.508-5.905 13.577-4.792 3.482 0.765 7.32 4.171 14.995 10.998l261.836 232.742c10.13 9.004 25.523 8.552 35.106-1.032s10.036-24.976 1.032-35.106l-232.743-261.833c-6.823-7.68-10.235-11.517-10.998-14.998-1.112-5.072 0.746-10.329 4.795-13.578 2.781-2.225 7.846-3.072 17.977-4.758l153.297-25.552c8.91-1.488 15.441-9.196 15.441-18.227 0-10.206-8.273-18.48-18.479-18.48zM632.879 891.733h209.074c42.537 0 63.802 0 79.647-9.146 10.377-5.992 18.999-14.61 24.986-24.988 9.148-15.841 9.148-37.109 9.148-79.645v-209.076c0-10.206-8.274-18.479-18.48-18.479-9.032 0-16.739 6.531-18.227 15.441l-25.552 153.297c-1.686 10.131-2.533 15.195-4.758 17.977-3.249 4.049-8.506 5.907-13.578 4.795-3.482-0.764-7.318-4.175-14.998-10.998l-261.833-232.743c-10.13-9.004-25.523-8.552-35.106 1.032s-10.036 24.976-1.032 35.106l232.742 261.836c6.827 7.676 10.233 11.514 10.998 14.995 1.113 5.069-0.744 10.33-4.792 13.577-2.785 2.23-7.851 3.074-17.975 4.762l-153.3 25.549c-8.91 1.485-15.441 9.195-15.441 18.228 0 10.206 8.273 18.479 18.479 18.479zM632.879 4.267h209.074c42.537 0 63.802 0 79.647 9.148 10.377 5.987 18.999 14.609 24.986 24.986 9.148 15.845 9.148 37.11 9.148 79.647v209.074c0 10.206-8.274 18.479-18.48 18.479-9.032 0-16.739-6.53-18.227-15.441l-25.552-153.3c-1.686-10.124-2.533-15.189-4.758-17.975-3.249-4.048-8.506-5.905-13.578-4.792-3.482 0.765-7.318 4.171-14.998 10.998l-261.833 232.742c-10.13 9.004-25.523 8.552-35.106-1.032s-10.036-24.976-1.032-35.106l232.742-261.833c6.827-7.68 10.233-11.517 10.998-14.998 1.113-5.072-0.744-10.329-4.792-13.578-2.785-2.225-7.851-3.072-17.975-4.758l-153.3-25.552c-8.91-1.488-15.441-9.196-15.441-18.227 0-10.206 8.273-18.48 18.479-18.48zM391.121 891.733h-209.076c-42.536 0-63.803 0-79.645-9.146-10.378-5.992-18.996-14.61-24.988-24.988-9.146-15.841-9.146-37.109-9.146-79.645v-209.076c0-10.206 8.273-18.479 18.479-18.479 9.033 0 16.742 6.531 18.228 15.441l25.549 153.297c1.688 10.131 2.533 15.195 4.762 17.977 3.247 4.049 8.508 5.907 13.577 4.795 3.482-0.764 7.32-4.175 14.995-10.998l261.836-232.743c10.13-9.004 25.523-8.552 35.106 1.032s10.036 24.976 1.032 35.106l-232.743 261.836c-6.823 7.676-10.235 11.514-10.998 14.995-1.112 5.069 0.746 10.33 4.795 13.577 2.781 2.23 7.846 3.074 17.977 4.762l153.297 25.549c8.91 1.485 15.441 9.195 15.441 18.228 0 10.206-8.273 18.479-18.479 18.479z" />
<glyph unicode="&#xe913;" glyph-name="grid-empty-ico" data-tags="grid-empty-ico" d="M273.067 823.467c34.111 0 52.827-0.145 65.81-1.89 0.169-0.023 0.335-0.046 0.498-0.068 0.023-0.162 0.045-0.328 0.068-0.498 1.746-12.984 1.89-31.7 1.89-65.81v-68.267c0-34.111-0.145-52.827-1.89-65.81-0.023-0.169-0.046-0.335-0.068-0.498-0.162-0.023-0.328-0.045-0.498-0.068-12.984-1.746-31.7-1.89-65.81-1.89h-68.267c-34.111 0-52.827 0.145-65.81 1.89-0.169 0.023-0.335 0.046-0.498 0.068-0.023 0.162-0.045 0.328-0.068 0.498-1.746 12.984-1.89 31.7-1.89 65.81v68.267c0 34.111 0.145 52.827 1.89 65.81 0.023 0.169 0.046 0.335 0.068 0.498 0.162 0.023 0.328 0.045 0.498 0.068 12.984 1.746 31.7 1.89 65.81 1.89h68.267zM88.261 871.739c-19.995-19.995-19.995-52.176-19.995-116.539v-68.267c0-64.362 0-96.543 19.995-116.539s52.176-19.995 116.539-19.995h68.267c64.362 0 96.543 0 116.539 19.995s19.995 52.176 19.995 116.539v68.267c0 64.362 0 96.543-19.995 116.539s-52.176 19.995-116.539 19.995h-68.267c-64.362 0-96.543 0-116.539-19.995zM273.067 277.333c34.111 0 52.827-0.143 65.81-1.891 0.169-0.020 0.335-0.048 0.498-0.068 0.023-0.164 0.045-0.328 0.068-0.498 1.746-12.984 1.89-31.696 1.89-65.809v-68.267c0-34.113-0.145-52.825-1.89-65.809-0.023-0.171-0.046-0.335-0.068-0.498-0.162-0.020-0.328-0.048-0.498-0.068-12.984-1.748-31.7-1.891-65.81-1.891h-68.267c-34.111 0-52.827 0.143-65.81 1.891-0.169 0.020-0.335 0.048-0.498 0.068-0.023 0.164-0.045 0.328-0.068 0.498-1.746 12.984-1.89 31.696-1.89 65.809v68.267c0 34.113 0.145 52.825 1.89 65.809 0.023 0.171 0.046 0.335 0.068 0.498 0.162 0.020 0.328 0.048 0.498 0.068 12.984 1.748 31.7 1.891 65.81 1.891h68.267zM88.261 325.605c-19.995-19.995-19.995-52.177-19.995-116.539v-68.267c0-64.362 0-96.543 19.995-116.538s52.176-19.995 116.539-19.995h68.267c64.362 0 96.543 0 116.539 19.995s19.995 52.176 19.995 116.538v68.267c0 64.362 0 96.543-19.995 116.539s-52.176 19.995-116.539 19.995h-68.267c-64.362 0-96.543 0-116.539-19.995zM819.2 823.467c34.113 0 52.825-0.145 65.809-1.89 0.171-0.023 0.335-0.046 0.498-0.068 0.020-0.162 0.048-0.328 0.068-0.498 1.748-12.984 1.891-31.7 1.891-65.81v-68.267c0-34.111-0.143-52.827-1.891-65.81-0.020-0.169-0.048-0.335-0.068-0.498-0.164-0.023-0.328-0.045-0.498-0.068-12.984-1.746-31.696-1.89-65.809-1.89h-68.267c-34.113 0-52.825 0.145-65.809 1.89-0.171 0.023-0.335 0.046-0.498 0.068-0.020 0.162-0.048 0.328-0.068 0.498-1.748 12.984-1.891 31.7-1.891 65.81v68.267c0 34.111 0.143 52.827 1.891 65.81 0.020 0.169 0.048 0.335 0.068 0.498 0.164 0.023 0.328 0.045 0.498 0.068 12.984 1.746 31.696 1.89 65.809 1.89h68.267zM634.395 871.739c-19.995-19.995-19.995-52.176-19.995-116.539v-68.267c0-64.362 0-96.543 19.995-116.539s52.177-19.995 116.539-19.995h68.267c64.362 0 96.543 0 116.538 19.995s19.995 52.176 19.995 116.539v68.267c0 64.362 0 96.543-19.995 116.539s-52.176 19.995-116.538 19.995h-68.267c-64.362 0-96.543 0-116.539-19.995zM819.2 277.333c34.113 0 52.825-0.143 65.809-1.891 0.171-0.020 0.335-0.048 0.498-0.068 0.020-0.164 0.048-0.328 0.068-0.498 1.748-12.984 1.891-31.696 1.891-65.809v-68.267c0-34.113-0.143-52.825-1.891-65.809-0.020-0.171-0.048-0.335-0.068-0.498-0.164-0.020-0.328-0.048-0.498-0.068-12.984-1.748-31.696-1.891-65.809-1.891h-68.267c-34.113 0-52.825 0.143-65.809 1.891-0.171 0.020-0.335 0.048-0.498 0.068-0.020 0.164-0.048 0.328-0.068 0.498-1.748 12.984-1.891 31.696-1.891 65.809v68.267c0 34.113 0.143 52.825 1.891 65.809 0.020 0.171 0.048 0.335 0.068 0.498 0.164 0.020 0.328 0.048 0.498 0.068 12.984 1.748 31.696 1.891 65.809 1.891h68.267zM634.395 325.605c-19.995-19.995-19.995-52.177-19.995-116.539v-68.267c0-64.362 0-96.543 19.995-116.538s52.177-19.995 116.539-19.995h68.267c64.362 0 96.543 0 116.538 19.995s19.995 52.176 19.995 116.538v68.267c0 64.362 0 96.543-19.995 116.539s-52.176 19.995-116.538 19.995h-68.267c-64.362 0-96.543 0-116.539-19.995z" />
<glyph unicode="&#xe914;" glyph-name="grid-ico" data-tags="grid-ico" d="M136.533 891.733h204.8c37.703 0 68.267-30.564 68.267-68.267v-204.8c0-37.703-30.564-68.267-68.267-68.267h-204.8c-37.703 0-68.267 30.564-68.267 68.267v204.8c0 37.703 30.564 68.267 68.267 68.267zM136.533 345.6h204.8c37.703 0 68.267-30.564 68.267-68.267v-204.8c0-37.703-30.564-68.267-68.267-68.267h-204.8c-37.703 0-68.267 30.564-68.267 68.267v204.8c0 37.703 30.564 68.267 68.267 68.267zM682.667 891.733h204.8c37.703 0 68.267-30.564 68.267-68.267v-204.8c0-37.703-30.564-68.267-68.267-68.267h-204.8c-37.703 0-68.267 30.564-68.267 68.267v204.8c0 37.703 30.564 68.267 68.267 68.267zM682.667 345.6h204.8c37.703 0 68.267-30.564 68.267-68.267v-204.8c0-37.703-30.564-68.267-68.267-68.267h-204.8c-37.703 0-68.267 30.564-68.267 68.267v204.8c0 37.703 30.564 68.267 68.267 68.267z" />
<glyph unicode="&#xe915;" glyph-name="heat-map-ico" data-tags="heat-map-ico" d="M88.261 871.739c19.995 19.995 52.176 19.995 116.539 19.995h614.4c64.362 0 96.543 0 116.538-19.995s19.995-52.176 19.995-116.539v-614.4c0-64.362 0-96.543-19.995-116.538s-52.176-19.995-116.538-19.995h-614.4c-64.362 0-96.543 0-116.539 19.995s-19.995 52.176-19.995 116.538v614.4c0 64.362 0 96.543 19.995 116.539zM156.528 803.472c-19.995-19.995-19.995-52.176-19.995-116.539v-477.867c0-64.362 0-96.543 19.995-116.538s52.176-19.995 116.539-19.995h477.867c64.362 0 96.543 0 116.538 19.995s19.995 52.176 19.995 116.538v477.867c0 64.362 0 96.543-19.995 116.539s-52.176 19.995-116.538 19.995h-477.867c-64.362 0-96.543 0-116.539-19.995zM375.467 482.133c-56.554 0-102.4 45.846-102.4 102.4s45.846 102.4 102.4 102.4c56.554 0 102.4-45.846 102.4-102.4s-45.846-102.4-102.4-102.4zM375.467 413.867c94.256 0 170.667 76.41 170.667 170.667s-76.41 170.667-170.667 170.667c-94.256 0-170.667-76.41-170.667-170.667s76.41-170.667 170.667-170.667zM546.133 209.067c0-37.703-30.564-68.267-68.267-68.267s-68.267 30.564-68.267 68.267c0 37.703 30.564 68.267 68.267 68.267s68.267-30.564 68.267-68.267zM819.2 379.733c0-56.554-45.846-102.4-102.4-102.4s-102.4 45.846-102.4 102.4c0 56.554 45.846 102.4 102.4 102.4s102.4-45.846 102.4-102.4z" />
<glyph unicode="&#xe916;" glyph-name="img-ico" data-tags="img-ico" d="M68.267 755.2v-614.4c0-3.297 0-6.506 0.003-9.639l-0.003-0.355c0-0.137 0.003-0.41 0.003-0.41 0.058-57.487 1.105-87.245 19.991-106.134 19.995-19.995 52.176-19.995 116.539-19.995h614.4c64.362 0 96.543 0 116.538 19.995s19.995 52.176 19.995 116.538v614.4c0 64.362 0 96.543-19.995 116.539s-52.176 19.995-116.538 19.995h-614.4c-64.362 0-96.543 0-116.539-19.995s-19.995-52.176-19.995-116.539zM887.467 359.253l-89.696 125.571c-24.515 34.327-73.994 38.422-103.82 8.593l-167.812-167.812c-26.66-26.66-69.884-26.66-96.544 0l-39.989 39.989c-26.66 26.66-69.884 26.66-96.544 0l-154.946-154.944c-1.582 17.347-1.582 39.049-1.582 66.683v409.6c0 64.362 0 96.543 19.995 116.539s52.176 19.995 116.539 19.995h477.867c64.362 0 96.543 0 116.538-19.995s19.995-52.176 19.995-116.539v-327.68zM477.867 584.533c0-56.554-45.846-102.4-102.4-102.4s-102.4 45.846-102.4 102.4c0 56.554 45.846 102.4 102.4 102.4s102.4-45.846 102.4-102.4z" />
<glyph unicode="&#xe917;" glyph-name="info-ico" data-tags="info-ico" d="M512 93.538c-195.764 0-354.462 158.698-354.462 354.462s158.698 354.462 354.462 354.462c195.764 0 354.462-158.698 354.462-354.462s-158.698-354.462-354.462-354.462zM512 14.769c239.267 0 433.231 193.964 433.231 433.231s-193.964 433.231-433.231 433.231c-239.267 0-433.231-193.964-433.231-433.231s193.964-433.231 433.231-433.231zM472.615 723.692h78.769v-78.769h-78.769v78.769zM393.846 566.154h78.769v-78.769h-78.769v78.769zM472.615 566.154h78.769v-393.846h-78.769v393.846z" />
<glyph unicode="&#xe918;" glyph-name="invoice-ico" data-tags="invoice-ico" d="M819.2 170.94c0-25.32-0.102-38.577-1.167-47.923-0.020-0.137-0.048-0.403-0.048-0.403s-0.246-0.116-0.369-0.171c-8.533-3.966-21.074-8.26-45.097-16.268l-57.788-19.258c-14.186-4.731-21.286-7.052-26.501-8.363l-0.287-0.068-0.273 0.109c-4.983 2.034-11.684 5.338-25.057 12.022l-24.891 12.445c-2.016 1.010-4.088 2.062-6.215 3.133-23.017 11.66-52.404 26.549-85.374 26.549s-62.357-14.889-85.374-26.549c-2.127-1.072-4.199-2.123-6.215-3.133l-14.415-7.209c-16.035-8.015-24.167-12.015-30.219-14.397l-0.311-0.123-0.311 0.123c-6.052 2.383-14.184 6.383-30.219 14.397l-43.594 21.798c-1.287 0.649-2.892 1.447-4.526 2.212-36.68 17.169-79.088 17.169-115.768 0-1.634-0.765-3.24-1.563-4.527-2.212l-0.35-0.171c-2.521-1.263-4.021-2.014-5.122-2.553-0.142-0.068-0.368-0.177-0.368-0.177s-0.003 0.253-0.005 0.41c-0.010 1.229-0.011 2.901-0.011 5.721v634.32c0 34.111 0.145 52.827 1.891 65.81 0.023 0.169 0.045 0.335 0.068 0.498 0.162 0.023 0.328 0.045 0.498 0.068 12.984 1.746 31.7 1.89 65.81 1.89h477.867c34.113 0 52.825-0.145 65.809-1.89 0.171-0.023 0.335-0.046 0.498-0.068 0.020-0.162 0.048-0.328 0.068-0.498 1.748-12.984 1.891-31.7 1.891-65.81v-584.26zM867.471 871.739c-19.995 19.995-52.176 19.995-116.538 19.995h-477.867c-64.362 0-96.543 0-116.539-19.995s-19.995-52.176-19.995-116.539v-634.32c0-5.393 0-8.090 0.11-10.022 2.686-47.343 51.633-77.592 95.178-58.825 1.777 0.765 4.19 1.973 9.014 4.383 1.66 0.833 2.49 1.249 3.289 1.618 18.34 8.588 39.545 8.588 57.885 0 0.799-0.369 1.629-0.785 3.289-1.618l43.242-21.62c29.963-14.978 44.944-22.473 61.060-22.473s31.097 7.496 61.060 22.473l14.414 7.209c29.963 14.978 44.944 22.473 61.060 22.473s31.097-7.496 61.060-22.473l24.89-12.445c24.958-12.479 37.437-18.719 50.979-19.681 13.551-0.963 26.781 3.447 53.255 12.274l57.795 19.265c45.056 15.019 67.584 22.528 80.466 40.4 12.889 17.879 12.889 41.629 12.889 89.122v584.26c0 64.362 0 96.543-19.995 116.539zM273.067 686.933h477.867v-68.267h-477.867v68.267zM273.067 550.4h477.867v-68.267h-477.867v68.267zM546.133 345.6h204.8v-68.267h-204.8v68.267z" />
<glyph unicode="&#xe919;" glyph-name="jobs-ico" data-tags="jobs-ico" d="M447.839 698.178l-234.973-467.259c-35.641-70.868-58.857-117.398-70.186-150.665-0.609-1.782-1.158-3.461-1.654-5.038 1.791 0.396 3.717 0.847 5.786 1.352 34.357 8.486 82.987 27.655 156.954 57.071l131.041 52.115c1.722 0.689 3.487 1.399 5.293 2.123 19.912 8.015 44.776 18.022 71.901 18.022s51.989-10.008 71.901-18.022c1.806-0.724 3.571-1.434 5.293-2.123l131.040-52.115c73.967-29.416 122.6-48.585 156.959-57.071 2.062-0.505 3.994-0.956 5.782-1.352-0.498 1.577-1.044 3.256-1.652 5.038-11.332 33.266-34.55 79.797-70.192 150.665l-234.97 467.259c-28.349 56.374-46.249 91.567-61.724 113.612-0.859 1.225-1.672 2.35-2.437 3.384-0.765-1.034-1.578-2.159-2.437-3.384-15.475-22.045-33.375-57.238-61.724-113.612zM151.876 261.591l234.973 467.257c54.609 108.59 81.912 162.886 125.151 162.886s70.543-54.295 125.151-162.886l234.97-467.257c69.25-137.701 103.875-206.548 71.202-241.848-32.666-35.301-104.55-6.717-248.313 50.463-51.177 20.35-79.869 31.764-131.043 52.115-25.662 10.206-38.493 15.312-51.966 15.312s-26.304-5.106-51.966-15.312l-131.041-52.115c-143.765-57.18-215.648-85.763-248.317-50.463s1.954 104.148 71.2 241.848zM477.867 4.267v409.6h68.267v-409.6h-68.267zM341.333 4.267v273.067h68.267v-273.067h-68.267zM614.4 4.267v273.067h68.267v-273.067h-68.267z" />
<glyph unicode="&#xe91a;" glyph-name="lightning-icon" data-tags="lightning-icon" d="M559.335 616.406l55.065 275.328-294.744-245.62c-53.705-44.754-80.557-67.131-81.921-97.207s23.352-54.793 72.784-104.225l35.421-35.421c30.875-30.875 46.313-46.313 50.431-66.376s-3.99-40.333-20.207-80.877l-103.097-257.741 320.664 320.664c38.162 38.162 57.243 57.243 60.137 80.508 0.696 5.597 0.696 11.259 0 16.856-2.895 23.265-21.976 42.346-60.137 80.508-21.266 21.266-31.9 31.899-37.102 45.256-1.28 3.286-2.303 6.666-3.061 10.11-3.080 14-0.131 28.746 5.767 58.237z" />
<glyph unicode="&#xe91b;" glyph-name="link-ico" data-tags="link-ico" d="M341.333 618.667h68.267v-68.267h-68.267v68.267zM273.067 550.089c-30.084-0.442-53.335-1.509-72.451-4.080-29.61-3.981-38.89-10.408-44.087-15.604s-11.624-14.477-15.604-44.087c-4.246-31.574-4.39-74.426-4.39-140.718v-68.267c0-66.294 0.145-109.145 4.39-140.718 3.981-29.607 10.408-38.892 15.604-44.087s14.477-11.626 44.087-15.606c31.574-4.246 74.426-4.39 140.718-4.39h68.267c66.292 0 109.144 0.143 140.718 4.39 29.61 3.98 38.89 10.411 44.087 15.606s11.624 14.479 15.604 44.087c4.246 31.573 4.39 74.424 4.39 140.718v68.267c0 66.292-0.145 109.144-4.39 140.718-3.981 29.61-10.408 38.89-15.604 44.087s-14.477 11.624-44.087 15.604c-19.117 2.57-42.367 3.637-72.451 4.080v68.28c84.636-1.224 132.62-7.502 164.81-39.693 39.99-39.989 39.99-104.352 39.99-233.077v-68.267c0-128.724 0-193.085-39.99-233.076s-104.352-39.991-233.077-39.991h-68.267c-128.725 0-193.087 0-233.077 39.991s-39.99 104.352-39.99 233.076v68.267c0 128.725 0 193.087 39.99 233.077 32.19 32.191 80.174 38.469 164.81 39.693v-68.28zM614.4 823.467h68.267c66.294 0 109.145-0.145 140.718-4.39 29.607-3.981 38.892-10.408 44.087-15.604s11.626-14.477 15.606-44.087c4.246-31.574 4.39-74.426 4.39-140.718v-68.267c0-66.292-0.143-109.144-4.39-140.718-3.98-29.61-10.411-38.89-15.606-44.087s-14.479-11.624-44.087-15.604c-19.115-2.57-42.366-3.638-72.451-4.080v-68.281c84.637 1.225 132.622 7.503 164.809 39.694 39.991 39.989 39.991 104.352 39.991 233.077v68.267c0 128.725 0 193.087-39.991 233.077s-104.352 39.99-233.076 39.99h-68.267c-128.725 0-193.087 0-233.077-39.99s-39.99-104.352-39.99-233.077v-68.267c0-128.725 0-193.087 39.99-233.077 32.19-32.191 80.174-38.469 164.81-39.694v68.281c-30.084 0.442-53.335 1.509-72.451 4.080-29.61 3.981-38.89 10.408-44.087 15.604s-11.624 14.477-15.604 44.087c-4.246 31.574-4.39 74.426-4.39 140.718v68.267c0 66.292 0.145 109.144 4.39 140.718 3.981 29.61 10.408 38.89 15.604 44.087s14.477 11.624 44.087 15.604c31.574 4.246 74.426 4.39 140.718 4.39zM614.4 345.6h68.267v-68.267h-68.267v68.267z" />
<glyph unicode="&#xe91c;" glyph-name="link-redirect-ico" data-tags="link-redirect-ico" d="M341.333 823.467h118.615c9.896 0 17.918-8.022 17.918-17.918 0-9.205-6.975-16.913-16.135-17.829l-202.251-20.225c-58.431-5.843-87.648-8.765-105.297-28.268s-17.65-48.865-17.65-107.588v-422.573c0-64.362 0-96.543 19.995-116.538s52.176-19.995 116.539-19.995h422.571c58.723 0 88.084 0 107.588 17.647 19.504 17.654 22.426 46.872 28.269 105.301l20.227 202.25c0.915 9.159 8.622 16.135 17.824 16.135 9.899 0 17.92-8.022 17.92-17.918v-118.615c0-128.724 0-193.085-39.991-233.076s-104.352-39.991-233.076-39.991h-273.067c-128.725 0-193.087 0-233.077 39.991s-39.99 104.352-39.99 233.076v273.067c0 128.725 0 193.087 39.99 233.077s104.352 39.99 233.077 39.99zM632.879 891.733h209.074c42.537 0 63.802 0 79.647-9.146 10.377-5.992 18.999-14.61 24.986-24.988 9.148-15.841 9.148-37.109 9.148-79.645v-209.076c0-10.206-8.274-18.479-18.48-18.479-9.032 0-16.739 6.531-18.227 15.441l-25.388 152.349c-1.707 10.228-2.56 15.342-4.772 18.114-3.331 4.179-8.8 6.029-13.988 4.732-3.434-0.86-7.223-4.407-14.787-11.498l-501.15-469.832c-9.815-9.202-25.161-8.957-34.675 0.56s-9.761 24.859-0.559 34.675l469.831 501.153c7.093 7.565 10.636 11.347 11.496 14.786 1.297 5.187-0.553 10.654-4.731 13.987-2.772 2.21-7.885 3.062-18.111 4.768l-152.351 25.391c-8.911 1.485-15.441 9.195-15.441 18.228 0 10.206 8.273 18.479 18.479 18.479z" />
<glyph unicode="&#xe91d;" glyph-name="list-ico-1" data-tags="list-ico-1" d="M853.333 823.467c16.841 0 26.051-0.037 32.707-0.492 0.307-0.020 0.601-0.042 0.874-0.063 0.020-0.272 0.041-0.563 0.061-0.873 0.457-6.657 0.492-15.867 0.492-32.705s-0.034-26.048-0.492-32.705c-0.020-0.31-0.041-0.601-0.061-0.873-0.273-0.021-0.567-0.043-0.874-0.063-6.656-0.455-15.865-0.492-32.707-0.492h-682.667c-16.838 0-26.048 0.037-32.705 0.492-0.31 0.020-0.601 0.042-0.873 0.063-0.021 0.272-0.043 0.563-0.063 0.873-0.455 6.657-0.492 15.867-0.492 32.705s0.037 26.048 0.492 32.705c0.020 0.31 0.042 0.601 0.063 0.873 0.272 0.021 0.563 0.043 0.873 0.063 6.657 0.455 15.867 0.492 32.705 0.492h682.667zM73.463 849.591c-5.196-12.545-5.196-28.449-5.196-60.258s0-47.712 5.196-60.258c6.928-16.727 20.219-30.018 36.946-36.946 12.545-5.196 28.449-5.196 60.258-5.196h682.667c31.805 0 47.712 0 60.259 5.196 16.725 6.928 30.017 20.219 36.946 36.946 5.195 12.545 5.195 28.449 5.195 60.258s0 47.712-5.195 60.258c-6.929 16.727-20.221 30.018-36.946 36.946-12.547 5.196-28.454 5.196-60.259 5.196h-682.667c-31.808 0-47.712 0-60.258-5.196-16.727-6.928-30.018-20.219-36.946-36.946zM853.333 482.133c16.841 0 26.051-0.037 32.707-0.492 0.307-0.020 0.601-0.042 0.874-0.063 0.020-0.272 0.041-0.563 0.061-0.873 0.457-6.657 0.492-15.867 0.492-32.705s-0.034-26.048-0.492-32.705c-0.020-0.31-0.041-0.601-0.061-0.873-0.273-0.021-0.567-0.043-0.874-0.063-6.656-0.455-15.865-0.492-32.707-0.492h-682.667c-16.838 0-26.048 0.037-32.705 0.492-0.31 0.020-0.601 0.042-0.873 0.063-0.021 0.272-0.043 0.563-0.063 0.873-0.455 6.657-0.492 15.867-0.492 32.705s0.037 26.048 0.492 32.705c0.020 0.31 0.042 0.601 0.063 0.873 0.272 0.021 0.563 0.043 0.873 0.063 6.657 0.455 15.867 0.492 32.705 0.492h682.667zM73.463 508.258c-5.196-12.545-5.196-28.449-5.196-60.258s0-47.712 5.196-60.258c6.928-16.727 20.219-30.018 36.946-36.946 12.545-5.196 28.449-5.196 60.258-5.196h682.667c31.805 0 47.712 0 60.259 5.196 16.725 6.928 30.017 20.219 36.946 36.946 5.195 12.545 5.195 28.449 5.195 60.258s0 47.712-5.195 60.258c-6.929 16.727-20.221 30.018-36.946 36.946-12.547 5.196-28.454 5.196-60.259 5.196h-682.667c-31.808 0-47.712 0-60.258-5.196-16.727-6.928-30.018-20.219-36.946-36.946zM853.333 140.8c16.841 0 26.051-0.034 32.707-0.492 0.307-0.020 0.601-0.041 0.874-0.061 0.020-0.273 0.041-0.567 0.061-0.874 0.457-6.656 0.492-15.865 0.492-32.707s-0.034-26.051-0.492-32.707c-0.020-0.307-0.041-0.601-0.061-0.874-0.273-0.020-0.567-0.041-0.874-0.061-6.656-0.457-15.865-0.492-32.707-0.492h-682.667c-16.838 0-26.048 0.034-32.705 0.492-0.31 0.020-0.601 0.041-0.873 0.061-0.021 0.273-0.043 0.567-0.063 0.874-0.455 6.656-0.492 15.865-0.492 32.707s0.037 26.051 0.492 32.707c0.020 0.307 0.042 0.601 0.063 0.874 0.272 0.020 0.563 0.041 0.873 0.061 6.657 0.457 15.867 0.492 32.705 0.492h682.667zM73.463 166.926c-5.196-12.547-5.196-28.454-5.196-60.259s0-47.712 5.196-60.259c6.928-16.725 20.219-30.017 36.946-36.946 12.545-5.195 28.449-5.195 60.258-5.195h682.667c31.805 0 47.712 0 60.259 5.195 16.725 6.929 30.017 20.221 36.946 36.946 5.195 12.547 5.195 28.454 5.195 60.259s0 47.712-5.195 60.259c-6.929 16.725-20.221 30.017-36.946 36.946-12.547 5.195-28.454 5.195-60.259 5.195h-682.667c-31.808 0-47.712 0-60.258-5.195-16.727-6.929-30.018-20.221-36.946-36.946z" />
<glyph unicode="&#xe91e;" glyph-name="list-ico" data-tags="list-ico" d="M136.533 891.733h750.933c37.703 0 68.267-30.564 68.267-68.267v-68.267c0-37.703-30.564-68.267-68.267-68.267h-750.933c-37.703 0-68.267 30.564-68.267 68.267v68.267c0 37.703 30.564 68.267 68.267 68.267zM136.533 550.4h750.933c37.703 0 68.267-30.564 68.267-68.267v-68.267c0-37.703-30.564-68.267-68.267-68.267h-750.933c-37.703 0-68.267 30.564-68.267 68.267v68.267c0 37.703 30.564 68.267 68.267 68.267zM136.533 209.067h750.933c37.703 0 68.267-30.564 68.267-68.267v-68.267c0-37.703-30.564-68.267-68.267-68.267h-750.933c-37.703 0-68.267 30.564-68.267 68.267v68.267c0 37.703 30.564 68.267 68.267 68.267z" />
<glyph unicode="&#xe91f;" glyph-name="minus-ico" data-tags="minus-ico" d="M512 72.533c-207.365 0-375.467 168.1-375.467 375.467 0 207.365 168.102 375.467 375.467 375.467 207.367 0 375.467-168.102 375.467-375.467 0-207.367-168.1-375.467-375.467-375.467zM512 4.267c245.071 0 443.733 198.663 443.733 443.733 0 245.067-198.663 443.733-443.733 443.733-245.067 0-443.733-198.666-443.733-443.733 0-245.071 198.666-443.733 443.733-443.733zM512 413.867c-131.959 0-238.933 15.282-238.933 34.133s106.974 34.133 238.933 34.133c131.959 0 238.933-15.282 238.933-34.133s-106.974-34.133-238.933-34.133z" />
<glyph unicode="&#xe920;" glyph-name="mobile-ico" data-tags="mobile-ico" d="M293.061 871.739c19.995 19.995 52.176 19.995 116.539 19.995h204.8c64.362 0 96.543 0 116.538-19.995s19.995-52.176 19.995-116.539v-614.4c0-64.362 0-96.543-19.995-116.538s-52.176-19.995-116.538-19.995h-204.8c-64.362 0-96.543 0-116.539 19.995s-19.995 52.176-19.995 116.538v614.4c0 64.362 0 96.543 19.995 116.539zM361.328 803.472c-19.995-19.995-19.995-52.176-19.995-116.539v-409.6c0-64.362 0-96.543 19.995-116.538s52.176-19.995 116.539-19.995h68.267c64.362 0 96.543 0 116.539 19.995s19.995 52.176 19.995 116.538v409.6c0 64.362 0 96.543-19.995 116.539s-52.176 19.995-116.539 19.995h-68.267c-64.362 0-96.543 0-116.539-19.995z" />
<glyph unicode="&#xe921;" glyph-name="move-ico" data-tags="move-ico" d="M341.333 789.333c18.851 0 34.133-15.282 34.133-34.133s-15.282-34.133-34.133-34.133c-18.851 0-34.133 15.282-34.133 34.133s15.282 34.133 34.133 34.133zM682.667 789.333c18.851 0 34.133-15.282 34.133-34.133s-15.282-34.133-34.133-34.133c-18.851 0-34.133 15.282-34.133 34.133s15.282 34.133 34.133 34.133zM341.333 475.308c18.851 0 34.133-15.282 34.133-34.133s-15.282-34.133-34.133-34.133c-18.851 0-34.133 15.282-34.133 34.133s15.282 34.133 34.133 34.133zM682.667 482.133c18.851 0 34.133-15.282 34.133-34.133s-15.282-34.133-34.133-34.133c-18.851 0-34.133 15.282-34.133 34.133s15.282 34.133 34.133 34.133zM341.333 174.933c18.851 0 34.133-15.282 34.133-34.133s-15.282-34.133-34.133-34.133c-18.851 0-34.133 15.282-34.133 34.133s15.282 34.133 34.133 34.133zM682.667 174.933c18.851 0 34.133-15.282 34.133-34.133s-15.282-34.133-34.133-34.133c-18.851 0-34.133 15.282-34.133 34.133s15.282 34.133 34.133 34.133z" />
<glyph unicode="&#xe922;" glyph-name="options-ico" data-tags="options-ico" d="M512 891.733c56.554 0 102.4-45.846 102.4-102.4s-45.846-102.4-102.4-102.4c-56.554 0-102.4 45.846-102.4 102.4s45.846 102.4 102.4 102.4zM512 550.4c56.554 0 102.4-45.846 102.4-102.4s-45.846-102.4-102.4-102.4c-56.554 0-102.4 45.846-102.4 102.4s45.846 102.4 102.4 102.4zM512 209.067c56.554 0 102.4-45.846 102.4-102.4s-45.846-102.4-102.4-102.4c-56.554 0-102.4 45.846-102.4 102.4s45.846 102.4 102.4 102.4z" />
<glyph unicode="&#xe923;" glyph-name="pause-ico" data-tags="pause-ico" d="M512 72.533c-207.365 0-375.467 168.1-375.467 375.467 0 207.365 168.102 375.467 375.467 375.467 207.367 0 375.467-168.102 375.467-375.467 0-207.367-168.1-375.467-375.467-375.467zM512 4.267c245.071 0 443.733 198.663 443.733 443.733 0 245.067-198.663 443.733-443.733 443.733-245.067 0-443.733-198.666-443.733-443.733 0-245.071 198.666-443.733 443.733-443.733zM341.333 448c0 131.959 15.282 238.933 34.133 238.933s34.133-106.974 34.133-238.933c0-131.959-15.282-238.933-34.133-238.933s-34.133 106.974-34.133 238.933zM614.4 448c0 131.959 15.282 238.933 34.133 238.933s34.133-106.974 34.133-238.933c0-131.959-15.282-238.933-34.133-238.933s-34.133 106.974-34.133 238.933z" />
<glyph unicode="&#xe924;" glyph-name="pause-page-click" data-tags="pause-page-click" d="M409.6 243.2c0-18.848 15.282-34.133 34.133-34.133s34.133 15.285 34.133 34.133v273.067c0 18.851-15.282 34.133-34.133 34.133s-34.133-15.282-34.133-34.133v-273.067zM580.267 209.067c-18.851 0-34.133 15.285-34.133 34.133v273.067c0 18.851 15.282 34.133 34.133 34.133s34.133-15.282 34.133-34.133v-273.067c0-18.848-15.282-34.133-34.133-34.133zM68.267 140.8v614.4c0 64.362 0 96.543 19.995 116.539s52.176 19.995 116.539 19.995h614.4c64.362 0 96.543 0 116.538-19.995s19.995-52.176 19.995-116.539v-614.4c0-64.362 0-96.543-19.995-116.538s-52.176-19.995-116.538-19.995h-614.4c-64.362 0-96.543 0-116.539 19.995s-19.995 52.176-19.995 116.538zM136.533 209.067c0-64.362 0-96.543 19.995-116.538s52.176-19.995 116.539-19.995h477.867c64.362 0 96.543 0 116.538 19.995s19.995 52.176 19.995 116.538v341.333c0 64.362 0 96.543-19.995 116.539s-52.176 19.995-116.538 19.995h-477.867c-64.362 0-96.543 0-116.539-19.995s-19.995-52.176-19.995-116.539v-341.333z" />
<glyph unicode="&#xe925;" glyph-name="payment-ico" data-tags="payment-ico" d="M68.267 618.667c0 64.362 0 96.543 19.995 116.539s52.176 19.995 116.539 19.995h614.4c64.362 0 96.543 0 116.538-19.995s19.995-52.176 19.995-116.539v-341.333c0-64.362 0-96.543-19.995-116.538s-52.176-19.995-116.538-19.995h-614.4c-64.362 0-96.543 0-116.539 19.995s-19.995 52.176-19.995 116.538v341.333zM136.533 482.133v-136.533c0-64.362 0-96.543 19.995-116.538s52.176-19.995 116.539-19.995h477.867c64.362 0 96.543 0 116.538 19.995s19.995 52.176 19.995 116.538v136.533h-750.933zM885.733 618.667c-2.178 22.189-7.113 37.124-18.261 48.272-19.995 19.995-52.176 19.995-116.538 19.995h-477.867c-64.362 0-96.543 0-116.539-19.995-11.147-11.148-16.080-26.083-18.263-48.272h747.467z" />
<glyph unicode="&#xe926;" glyph-name="plus-ico" data-tags="plus-ico" d="M512 72.533c-207.365 0-375.467 168.1-375.467 375.467 0 207.365 168.102 375.467 375.467 375.467 207.367 0 375.467-168.102 375.467-375.467 0-207.367-168.1-375.467-375.467-375.467zM512 4.267c245.071 0 443.733 198.663 443.733 443.733 0 245.067-198.663 443.733-443.733 443.733-245.067 0-443.733-198.666-443.733-443.733 0-245.071 198.666-443.733 443.733-443.733zM546.133 448c0-131.959-15.282-238.933-34.133-238.933s-34.133 106.974-34.133 238.933c0 131.959 15.282 238.933 34.133 238.933s34.133-106.974 34.133-238.933zM512 413.867c-131.959 0-238.933 15.282-238.933 34.133s106.974 34.133 238.933 34.133c131.959 0 238.933-15.282 238.933-34.133s-106.974-34.133-238.933-34.133z" />
<glyph unicode="&#xe927;" glyph-name="question-mark-ico" data-tags="question-mark-ico" d="M512 93.538c-195.764 0-354.462 158.698-354.462 354.462s158.698 354.462 354.462 354.462c195.764 0 354.462-158.698 354.462-354.462s-158.698-354.462-354.462-354.462zM512 14.769c239.267 0 433.231 193.964 433.231 433.231s-193.964 433.231-433.231 433.231c-239.267 0-433.231-193.964-433.231-433.231s193.964-433.231 433.231-433.231zM472.615 251.077h78.769v-78.769h-78.769v78.769zM405.382 672.77c58.883 58.884 154.352 58.884 213.236 0s58.884-154.352 0-213.236l-32.627-32.628c-22.159-22.158-34.606-52.211-34.606-83.547v-13.514h-78.769v13.514c0 52.228 20.747 102.316 57.677 139.246l32.628 32.627c28.122 28.123 28.122 73.718 0 101.841s-73.719 28.122-101.841 0c-28.122-28.123-28.122-73.718 0-101.841l-55.698-55.698c-58.884 58.883-58.884 154.353 0 213.236z" />
<glyph unicode="&#xe928;" glyph-name="search-ico" data-tags="search-ico" d="M443.733 209.067c-169.662 0-307.2 137.538-307.2 307.2s137.538 307.2 307.2 307.2c169.662 0 307.2-137.538 307.2-307.2s-137.538-307.2-307.2-307.2zM443.733 140.8c207.365 0 375.467 168.102 375.467 375.467s-168.102 375.467-375.467 375.467c-207.365 0-375.467-168.102-375.467-375.467s168.102-375.467 375.467-375.467zM682.667 209.067l204.8-204.8c37.704 0 68.267 30.563 68.267 68.267l-204.8 204.8h-68.267v-68.267z" />
<glyph unicode="&#xe929;" glyph-name="settings-full-ico" data-tags="settings-full-ico" d="M409.6 891.733h204.8c0-26.317 0-39.476 1.746-47.047 10.538-45.695 62.949-67.404 102.709-42.544 6.588 4.119 15.892 13.423 34.502 32.031l144.814-144.814c-18.609-18.609-27.914-27.914-32.031-34.503-24.856-39.762-3.147-92.172 42.544-102.71 7.571-1.746 20.733-1.746 47.049-1.746v-204.8c-26.317 0-39.479 0-47.049-1.746-45.691-10.538-67.4-62.949-42.544-102.709 4.123-6.588 13.428-15.892 32.038-34.502l-144.821-144.821c-18.609 18.616-27.914 27.921-34.502 32.038-39.761 24.856-92.171 3.147-102.709-42.544-1.746-7.571-1.746-20.733-1.746-47.049h-204.8c0 26.317 0 39.479-1.746 47.049-10.538 45.691-62.948 67.4-102.71 42.544-6.588-4.116-15.893-13.421-34.503-32.031l-144.817 144.814c18.61 18.609 27.915 27.914 32.033 34.502 24.86 39.76 3.151 92.172-42.544 102.709-7.571 1.746-20.73 1.746-47.047 1.746v204.8c26.318 0 39.478 0 47.049 1.746 45.694 10.538 67.403 62.948 42.544 102.71-4.119 6.588-13.423 15.893-32.033 34.503l144.815 144.815c18.609-18.609 27.914-27.914 34.502-32.033 39.762-24.859 92.174-3.15 102.711 42.544 1.746 7.571 1.746 20.73 1.746 47.047zM512 277.333c94.256 0 170.667 76.41 170.667 170.667s-76.41 170.667-170.667 170.667c-94.256 0-170.667-76.41-170.667-170.667s76.41-170.667 170.667-170.667z" />
<glyph unicode="&#xe92a;" glyph-name="settings-outline-ico" data-tags="settings-outline-ico" d="M614.4 891.733c0-26.317 0-39.476 1.746-47.047 10.538-45.695 62.949-67.404 102.709-42.544 6.492 4.056 15.613 13.144 33.669 31.197 0.273 0.276 0.553 0.555 0.833 0.835l144.814-144.815-0.15-0.154c-18.507-18.507-27.771-27.779-31.881-34.349-24.856-39.762-3.147-92.172 42.544-102.71 7.571-1.746 20.733-1.746 47.049-1.746v-204.8c-26.317 0-39.479 0-47.049-1.746-45.691-10.538-67.4-62.949-42.544-102.709 4.123-6.588 13.428-15.892 32.038-34.502l-144.821-144.821c-18.609 18.616-27.914 27.921-34.502 32.038-39.761 24.856-92.171 3.147-102.709-42.544-1.746-7.571-1.746-20.733-1.746-47.049h-204.8c0 26.317 0 39.479-1.746 47.049-10.538 45.691-62.948 67.4-102.71 42.544-6.418-4.014-15.416-12.95-33.085-30.618-0.466-0.464-0.939-0.935-1.419-1.42l-144.815 144.821c18.61 18.609 27.915 27.914 32.033 34.502 24.86 39.76 3.151 92.172-42.544 102.709-7.571 1.746-20.73 1.746-47.047 1.746v204.8c26.318 0 39.478 0 47.049 1.746 45.694 10.538 67.403 62.948 42.544 102.71-4.119 6.588-13.423 15.893-32.033 34.503l144.816 144.815c18.609-18.609 27.914-27.914 34.501-32.033 39.762-24.859 92.174-3.15 102.711 42.544 1.746 7.571 1.746 20.73 1.746 47.047h204.8zM749.834 741.153c-77.072-43.717-175.133-3.099-198.72 82.314h-78.227c-23.587-85.413-121.649-126.031-198.724-82.314l-55.315-55.315c43.718-77.075 3.099-175.137-82.315-198.724v-78.227c85.413-23.587 126.031-121.648 82.313-198.72l55.315-55.316c77.075 43.718 175.138 3.099 198.725-82.316h78.227c23.587 85.415 121.649 126.034 198.728 82.316l55.31 55.316c-43.718 77.072-3.099 175.133 82.316 198.721v78.227c-85.415 23.587-126.034 121.649-82.316 198.724l-55.316 55.315zM512 345.6c-56.554 0-102.4 45.846-102.4 102.4s45.846 102.4 102.4 102.4c56.554 0 102.4-45.846 102.4-102.4s-45.846-102.4-102.4-102.4zM512 277.333c94.256 0 170.667 76.41 170.667 170.667s-76.41 170.667-170.667 170.667c-94.256 0-170.667-76.41-170.667-170.667s76.41-170.667 170.667-170.667z" />
<glyph unicode="&#xe92b;" glyph-name="shrink-ico" data-tags="shrink-ico" d="M868.987 482.136h-209.076c-42.536 0-63.803 0-79.645 9.146-10.378 5.992-18.996 14.61-24.988 24.988-9.146 15.841-9.146 37.109-9.146 79.645v209.076c0 10.206 8.273 18.479 18.479 18.479 9.033 0 16.742-6.531 18.228-15.441l25.549-153.297c1.688-10.131 2.533-15.195 4.762-17.977 3.247-4.049 8.508-5.907 13.577-4.795 3.482 0.764 7.32 4.175 14.995 10.998l261.84 232.743c10.124 9.004 25.518 8.552 35.103-1.032s10.035-24.976 1.031-35.106l-232.742-261.836c-6.827-7.676-10.233-11.514-10.998-14.995-1.113-5.069 0.744-10.331 4.792-13.577 2.785-2.23 7.851-3.074 17.975-4.762l153.3-25.549c8.909-1.485 15.442-9.195 15.442-18.228 0-10.206-8.274-18.479-18.48-18.479zM155.013 413.867h209.076c42.536 0 63.803 0 79.645-9.146 10.378-5.992 18.995-14.61 24.987-24.988 9.146-15.841 9.146-37.109 9.146-79.645v-209.076c0-10.206-8.274-18.48-18.479-18.48-9.034 0-16.743 6.533-18.228 15.442l-25.549 153.3c-1.688 10.124-2.533 15.189-4.762 17.975-3.247 4.048-8.508 5.905-13.578 4.792-3.482-0.765-7.32-4.171-14.995-10.998l-261.835-232.742c-10.13-9.004-25.523-8.554-35.106 1.031s-10.036 24.979-1.032 35.103l232.743 261.84c6.823 7.676 10.235 11.514 10.998 14.995 1.111 5.069-0.747 10.33-4.796 13.577-2.781 2.23-7.846 3.074-17.976 4.762l-153.297 25.549c-8.911 1.485-15.441 9.195-15.441 18.228 0 10.206 8.273 18.479 18.479 18.479z" />
<glyph unicode="&#xe92c;" glyph-name="snippet-ico" data-tags="snippet-ico" d="M398.432 153.846c-7.483-7.264-19.387-7.27-26.875-0.007l-202.243 196.155c-47.508 46.078-71.262 69.117-71.262 98.007s23.753 51.929 71.262 98.007l202.243 196.156c7.487 7.262 19.392 7.258 26.875-0.010 6.517-6.33 7.735-16.348 2.925-24.054l-159.55-255.642c-4.388-7.031-6.582-10.547-6.582-14.458s2.194-7.427 6.582-14.458l159.55-255.641c4.81-7.707 3.592-17.729-2.925-24.057zM625.568 153.846c7.483-7.264 19.386-7.27 26.874-0.007l202.243 196.155c47.507 46.078 71.264 69.117 71.264 98.007s-23.757 51.929-71.264 98.007l-202.243 196.156c-7.487 7.262-19.391 7.258-26.874-0.010-6.517-6.33-7.735-16.348-2.925-24.054l159.549-255.642c4.39-7.031 6.581-10.547 6.581-14.458s-2.191-7.427-6.581-14.458l-159.549-255.641c-4.81-7.707-3.592-17.729 2.925-24.057zM614.4 448c0-56.554-45.846-102.4-102.4-102.4s-102.4 45.846-102.4 102.4c0 56.554 45.846 102.4 102.4 102.4s102.4-45.846 102.4-102.4z" />
<glyph unicode="&#xe92d;" glyph-name="stats-ico" data-tags="stats-ico" d="M512 482.133c245.067 0 443.733-15.282 443.733-34.133s-198.666-34.133-443.733-34.133c-245.067 0-443.733 15.282-443.733 34.133s198.666 34.133 443.733 34.133zM201.995 643.453l-60.492-87.656c-12.493-18.104 0.010-43.25 21.504-43.25 8.836 0 17.087 4.57 21.989 12.18l29.77 46.219c11.751 18.243 38.476 15.258 46.195-5.16l195.997-518.423c23.75-62.819 111.925-55.091 125.129 10.97l141.915 709.928c2.71 13.568 21.019 14.685 25.252 1.541l75.517-234.494c4.383-13.593 16.671-22.762 30.515-22.762 21.272 0 36.68 20.987 30.986 42.198l-75.783 282.377c-20.043 74.677-123.194 72.068-139.691-3.533l-146.057-669.475c-5.797-26.569-41.587-28.692-50.282-2.983l-157.35 465.315c-17.536 51.856-84.262 61.714-115.115 17.008z" />
<glyph unicode="&#xe92e;" glyph-name="tablet-ico" data-tags="tablet-ico" d="M156.528 871.739c19.995 19.995 52.176 19.995 116.539 19.995h477.867c64.362 0 96.543 0 116.538-19.995s19.995-52.176 19.995-116.539v-614.4c0-64.362 0-96.543-19.995-116.538s-52.176-19.995-116.538-19.995h-477.867c-64.362 0-96.543 0-116.539 19.995s-19.995 52.176-19.995 116.538v614.4c0 64.362 0 96.543 19.995 116.539zM224.795 803.472c-19.995-19.995-19.995-52.176-19.995-116.539v-409.6c0-64.362 0-96.543 19.995-116.538s52.176-19.995 116.539-19.995h341.333c64.362 0 96.543 0 116.538 19.995s19.995 52.176 19.995 116.538v409.6c0 64.362 0 96.543-19.995 116.539s-52.176 19.995-116.538 19.995h-341.333c-64.362 0-96.543 0-116.539-19.995z" />
<glyph unicode="&#xe92f;" glyph-name="target-click-ico" data-tags="target-click-ico" d="M497.375 808.975c-54.028 18.34-112.443 19.296-167.042 2.733s-102.638-49.811-137.371-95.076c-34.733-45.266-54.415-100.273-56.282-157.298s14.176-113.203 45.874-160.642c31.698-47.44 77.461-83.759 130.859-103.857 53.399-20.096 111.751-22.964 166.863-8.197l17.669-65.939c-68.889-18.459-141.83-14.875-208.579 10.247s-123.95 70.519-163.574 129.819c-39.623 59.3-59.676 129.522-57.342 200.803s26.936 140.041 70.352 196.622c43.417 56.581 103.466 98.142 171.715 118.845s141.267 19.508 208.802-3.417c67.534-22.925 126.192-66.428 167.731-124.4 41.547-57.972 63.884-127.5 63.884-198.819h-68.267c0 57.055-17.872 112.678-51.105 159.055s-80.159 81.18-134.187 99.52zM480.639 490.88l19.544-327.545c1.281-21.463 2.374-39.253 3.509-54.101 10.231 12.056 22.329 26.815 37.020 44.803l56.702 69.414c0.709 0.867 1.472 1.816 2.29 2.833 8.209 10.199 21.934 27.259 41.519 38.195 19.34 10.8 40.98 13.704 54.176 15.473 1.324 0.177 2.567 0.344 3.707 0.505l90.501 12.789c20.268 2.864 37.451 5.315 52.081 7.578-11.756 7.67-25.552 16.463-41.725 26.736l-283.495 180.143c-15.35 9.754-27.772 17.607-38.056 23.876 0.496-11.631 1.288-24.945 2.228-40.7zM553.079 565.322l283.501-180.143c83.545-53.088 125.317-79.632 118.415-109.060-6.902-29.423-56.545-36.441-155.832-50.47l-90.508-12.786c-17.722-2.505-26.582-3.755-34.149-7.98s-13.119-11.025-24.224-24.617l-56.702-69.414c-62.207-76.158-93.31-114.237-123.107-105.301-29.797 8.929-32.677 57.194-38.436 153.716l-19.545 327.548c-4.542 76.121-6.813 114.183 17.473 127.745s57.228-7.371 123.113-49.237z" />
<glyph unicode="&#xe930;" glyph-name="teams-ico" data-tags="teams-ico" d="M204.8 652.8c0 131.959 106.974 238.933 238.933 238.933 125.366 0 228.18-96.55 238.142-219.349 21.114 9.353 44.482 14.549 69.058 14.549 94.256 0 170.667-76.41 170.667-170.667 0-53.148-24.296-100.622-62.382-131.922 14.855-8.557 29.041-18.9 42.298-30.937 16.097-14.606 30.502-33.43 42.974-54.518 36.127-61.076-6.622-132.981-74.26-154.417l-51.104-16.193c0.027-0.109 0.048-0.225 0.075-0.335l-332.749-109.609c-27.745-9.141-57.689-9.141-85.434 0l-215.856 71.107c-66.427 21.879-107.428 91.607-77.55 154.842 25.305 53.557 59.004 100.906 99.49 139.098 31.907 30.099 67.193 53.719 104.516 70.302-64.384 42.805-106.817 116.004-106.817 199.115zM614.4 652.8c0 94.256-76.41 170.667-170.667 170.667s-170.667-76.41-170.667-170.667c0-94.256 76.41-170.667 170.667-170.667s170.667 76.41 170.667 170.667zM588.773 462.909c2.163-6.577 4.715-12.979 7.629-19.176-6.775 3.557-13.629 6.876-20.552 9.952 4.413 2.934 8.723 6.011 12.924 9.224zM750.933 413.867c56.552 0 102.4 45.846 102.4 102.4s-45.848 102.4-102.4 102.4c-31.901 0-60.396-14.589-79.178-37.459-5.489-17.5-12.937-34.133-22.087-49.643-0.748-4.99-1.135-10.099-1.135-15.298 0-56.554 45.848-102.4 102.4-102.4zM718.807 341.905c34.57-42.56 62.28-92.759 81.688-147.918l49.104 15.565c17.435 5.523 30.16 17.258 36.031 28.617 5.175 10.008 4.772 18.070 0.102 25.969-9.994 16.901-20.337 29.863-30.092 38.719-31.621 28.695-68.492 42.744-104.707 42.744-10.704 0-21.463-1.227-32.126-3.695zM735.751 172.332c-22.869 64.539-58.334 119.986-102.229 161.393-56.47 53.27-123.287 80.142-189.789 80.142s-133.318-26.872-189.789-80.142c-33.784-31.869-62.633-72.093-84.61-118.603-4.87-10.308-4.497-20.896 1.307-31.894 6.265-11.872 18.81-23.327 35.877-28.945l215.856-71.107c13.872-4.567 28.845-4.567 42.717 0l270.659 89.156z" />
<glyph unicode="&#xe931;" glyph-name="upload-ico-1" data-tags="upload-ico-1" d="M523.444 673.928c-7.127 7.171-18.729 7.171-25.856 0l-128.877-129.682c-45.111-45.393-67.667-68.090-67.667-96.242s22.556-50.849 67.667-96.242l128.877-129.683c7.127-7.168 18.729-7.168 25.856 0 6.251 6.287 7.068 16.166 1.934 23.395l-81.048 114.18c-12.716 17.914-19.074 26.87-15.549 34.142s14.495 7.826 36.435 8.937l398.385 20.17c13.373 0.677 23.866 11.715 23.866 25.102s-10.493 24.424-23.866 25.101l-398.385 20.17c-21.94 1.111-32.91 1.666-36.435 8.937s2.833 16.228 15.549 34.142l81.048 114.177c5.134 7.231 4.317 17.108-1.934 23.398zM204.8 448c0 131.959-15.282 238.933-34.133 238.933s-34.133-106.974-34.133-238.933c0-131.959 15.282-238.933 34.133-238.933s34.133 106.974 34.133 238.933z" />
<glyph unicode="&#xe932;" glyph-name="upload-ico" data-tags="upload-ico" d="M737.922 436.559c7.175 7.127 7.175 18.73 0 25.856l-129.68 128.877c-45.394 45.111-68.091 67.667-96.243 67.667s-50.849-22.556-96.242-67.667l-129.682-128.877c-7.171-7.126-7.171-18.729 0-25.856 6.29-6.251 16.167-7.068 23.398-1.934l114.177 81.048c17.914 12.716 26.87 19.074 34.142 15.549s7.826-14.495 8.937-36.435l20.17-398.387c0.677-13.373 11.715-23.866 25.101-23.866s24.425 10.493 25.102 23.866l20.17 398.387c1.111 21.94 1.666 32.91 8.937 36.435s16.228-2.833 34.141-15.549l114.179-81.048c7.229-5.134 17.108-4.317 23.395 1.934zM512 755.2c131.959 0 238.933 15.282 238.933 34.133s-106.974 34.133-238.933 34.133c-131.959 0-238.933-15.282-238.933-34.133s106.974-34.133 238.933-34.133z" />
<glyph unicode="&#xe933;" glyph-name="webpage-ico" data-tags="webpage-ico" d="M341.333 277.333c0 32.181 0 48.272 9.998 58.269s26.088 9.998 58.269 9.998h204.8c32.182 0 48.272 0 58.269-9.998s9.998-26.088 9.998-58.269c0-32.181 0-48.271-9.998-58.272-9.997-9.994-26.087-9.994-58.269-9.994h-204.8c-32.181 0-48.272 0-58.269 9.994-9.998 10.001-9.998 26.092-9.998 58.272zM307.2 550.4c-18.851 0-34.133-15.282-34.133-34.133s15.282-34.133 34.133-34.133h409.6c18.848 0 34.133 15.282 34.133 34.133s-15.285 34.133-34.133 34.133h-409.6zM68.267 140.8v614.4c0 64.362 0 96.543 19.995 116.539s52.176 19.995 116.539 19.995h614.4c64.362 0 96.543 0 116.538-19.995s19.995-52.176 19.995-116.539v-614.4c0-64.362 0-96.543-19.995-116.538s-52.176-19.995-116.538-19.995h-614.4c-64.362 0-96.543 0-116.539 19.995s-19.995 52.176-19.995 116.538zM136.533 209.067c0-64.362 0-96.543 19.995-116.538s52.176-19.995 116.539-19.995h477.867c64.362 0 96.543 0 116.538 19.995s19.995 52.176 19.995 116.538v341.333c0 64.362 0 96.543-19.995 116.539s-52.176 19.995-116.538 19.995h-477.867c-64.362 0-96.543 0-116.539-19.995s-19.995-52.176-19.995-116.539v-341.333z" />
<glyph unicode="&#xe934;" glyph-name="x-ico" data-tags="x-ico" d="M512 72.533c-207.365 0-375.467 168.1-375.467 375.467 0 207.365 168.102 375.467 375.467 375.467 207.367 0 375.467-168.102 375.467-375.467 0-207.367-168.1-375.467-375.467-375.467zM512 4.267c245.071 0 443.733 198.663 443.733 443.733 0 245.067-198.663 443.733-443.733 443.733-245.067 0-443.733-198.666-443.733-443.733 0-245.071 198.666-443.733 443.733-443.733zM536.136 423.867c-93.309-93.309-179.757-158.146-193.087-144.815s51.506 99.779 144.815 193.087c93.309 93.31 179.757 158.145 193.087 144.815 13.328-13.33-51.506-99.778-144.815-193.087zM487.864 423.867c-93.31 93.31-158.145 179.758-144.815 193.087s99.778-51.506 193.087-144.815c93.31-93.309 158.143-179.757 144.815-193.087-13.33-13.33-99.778 51.507-193.087 144.815z" />
</font>
</defs>
</svg>
